<svg width="150" height="25" viewBox="0 0 150 25" fill="none" xmlns="http://www.w3.org/2000/svg">
<g clip-path="url(#clip0_0_3)">
<path d="M126.235 0.748503C125.786 0.299401 125.187 0 124.588 0H114.259L137.463 24.3263C137.837 24.7006 138.361 24.9251 138.96 24.9251H140.382L127.358 11.3024L128.481 10.1048L142.103 24.3263C142.478 24.7754 143.076 25 143.6 25H144.948L129.678 8.98204L130.801 7.78443L146.519 24.2515C146.969 24.7006 147.567 25 148.241 25H149.513L126.235 0.748503ZM122.867 2.02096H123.84L124.139 1.0479H124.214L124.513 2.02096H125.487C125.487 2.02096 125.561 2.02096 125.487 2.09581L124.663 2.69461L124.963 3.66766C124.963 3.66766 124.963 3.74251 124.888 3.66766L124.064 3.06886L123.391 3.66766H123.316L123.615 2.69461L122.867 2.02096C122.792 2.02096 122.792 2.02096 122.867 2.02096ZM121.519 2.02096L120.696 2.61976L120.995 3.59281C120.995 3.59281 120.995 3.66766 120.921 3.59281L120.097 2.99401L119.274 3.59281H119.199L119.498 2.61976L118.675 2.02096V1.94611H119.648L119.948 0.973054H120.022L120.322 1.94611L121.519 2.02096ZM124.588 5.23952L123.765 5.83832L124.064 6.81138C124.064 6.81138 124.064 6.88623 123.99 6.81138L123.166 6.21257L122.343 6.81138H122.268L122.567 5.83832L121.819 5.23952V5.16467H122.792L123.091 4.19162H123.166L123.466 5.16467L124.588 5.23952C124.663 5.23952 124.588 5.16467 124.588 5.23952ZM127.507 8.38323L126.684 8.98204L126.984 9.95509C126.984 9.95509 126.984 10.0299 126.909 9.95509L126.085 9.35629L125.262 9.95509H125.187L125.487 8.98204L124.663 8.38323V8.30838H125.636L125.936 7.33533H126.01L126.31 8.30838L127.507 8.38323C127.582 8.38323 127.582 8.38323 127.507 8.38323ZM128.705 5.16467L127.882 5.76347L128.181 6.73653C128.181 6.73653 128.181 6.81138 128.106 6.73653L127.283 6.13772L126.46 6.73653H126.385L126.684 5.76347L125.861 5.16467V5.08982H126.834L127.133 4.11677H127.208L127.507 5.08982L128.705 5.16467Z" fill="black"/>
<path d="M125.262 13.3982L114.184 25H124.513C125.112 25 125.786 24.7754 126.16 24.2515L130.277 19.9102C130.576 19.5359 130.576 19.012 130.277 18.7126L125.262 13.3982Z" fill="black"/>
<path d="M138.96 10.9281L149.364 0H139.034C138.436 0 137.762 0.224551 137.388 0.748503L132.672 5.68862L137.687 10.9281C137.987 11.3024 138.585 11.3024 138.96 10.9281Z" fill="black"/>
<path d="M0.63623 3.44311V21.4072C0.63623 23.3533 2.20809 24.8503 4.07934 24.8503H32.0734C34.0195 24.8503 35.5165 23.2784 35.5165 21.4072V12.3503C35.5165 11.5269 34.8428 10.8533 34.0195 10.8533H23.765V14.5958C23.765 15.4192 24.4386 16.0928 25.262 16.0928H28.3308C28.6302 16.0928 28.8548 16.3174 28.8548 16.6168V18.8623C28.8548 19.1617 28.6302 19.3862 28.3308 19.3862H7.89671C7.59731 19.3862 7.37276 19.1617 7.37276 18.8623V6.06287C7.37276 5.76347 7.59731 5.53892 7.89671 5.53892H28.3308C28.6302 5.53892 28.8548 5.76347 28.8548 6.06287V8.23353H35.5913V3.44311C35.5913 1.57186 34.0195 0 32.0734 0H4.07934C2.20809 0 0.63623 1.57186 0.63623 3.44311Z" fill="black"/>
<path d="M71.3697 0H43.1512C41.2051 0 39.7081 1.57186 39.7081 3.44311V21.482C39.7081 23.4281 41.2799 24.9251 43.1512 24.9251H71.3697C73.3159 24.9251 74.8129 23.3533 74.8129 21.482V3.44311C74.8877 1.57186 73.3159 0 71.3697 0ZM68.0763 6.21257V18.7874C68.0763 19.012 68.0015 19.1617 67.8518 19.3114C67.7021 19.3862 67.4775 19.4611 67.1033 19.4611H47.4176C47.0434 19.4611 46.8188 19.3862 46.6691 19.3114C46.5194 19.2365 46.4446 19.0868 46.4446 18.7874V6.21257C46.4446 5.98802 46.5194 5.83832 46.6691 5.68862C46.8188 5.61377 47.0434 5.53892 47.4176 5.53892H67.1033C67.4775 5.53892 67.7769 5.61377 67.8518 5.68862C68.0015 5.83832 68.0763 5.98802 68.0763 6.21257Z" fill="black"/>
<path d="M105.576 0C104.528 0 103.481 0.598802 103.031 1.57186L94.5733 17.9641L86.0404 1.57186C85.5165 0.598802 84.5434 0 83.4955 0H76.9835L89.1841 23.7275C89.5584 24.476 90.3069 24.9251 91.2051 24.9251H97.9416C98.765 24.9251 99.5883 24.476 99.9626 23.7275L112.163 0H105.576Z" fill="black"/>
</g>
<defs>
<clipPath id="clip0_0_3">
<rect width="150" height="25" fill="white"/>
</clipPath>
</defs>
</svg>
